<svg width="91" height="95" viewBox="0 0 91 95" fill="none" xmlns="http://www.w3.org/2000/svg">
<path d="M72.8678 42.8223H16.8764C6.86927 42.8223 5.22207 47.5 4.59262 52.5361C3.44994 61.6786 1.45897 82.4282 0.878908 86.2489C0.298851 90.0695 1.7272 94.2485 4.59262 94.2485C28.1128 94.2485 79.658 93.4001 84.0002 93.4001C88.3424 93.4001 90.2849 89.4981 89.4366 86.2489C88.4844 77.5826 86.3514 58.7073 85.4373 52.5361C84.5231 46.365 81.7148 42.8223 72.8678 42.8223Z" stroke="#E5DFD9" stroke-width="1.5"/>
<path d="M35.722 86.2491H55.4332" stroke="#E5DFD9" stroke-width="1.5"/>
<path d="M20.2958 42.6431C30.0086 -12.783 59.1469 -13.6401 70.0024 42.6431" stroke="#E5DFD9" stroke-width="1.5"/>
<path d="M24.8665 42.8222C32.793 -8.58678 56.5726 -9.38178 65.4317 42.8222" stroke="#E5DFD9" stroke-width="1.5"/>
</svg>
