<svg width="26" height="35" viewBox="0 0 26 35" fill="none" xmlns="http://www.w3.org/2000/svg">
<path d="M22.75 0C23.6302 0 24.375 0.338542 25.0521 0.947919C25.6615 1.625 26 2.3698 26 3.25001V34.6667L13 27.0834L-2.61276e-05 34.6667V3.25001C-2.61276e-05 2.3698 0.270808 1.625 0.947892 0.947919C1.55727 0.338542 2.30206 0 3.24998 0H22.75ZM23.8334 30.8751V3.25001C23.8334 2.97917 23.6979 2.70834 23.4948 2.50521C23.2917 2.30209 23.0209 2.16667 22.75 2.16667H3.24998C2.91144 2.16667 2.6406 2.30209 2.43748 2.50521C2.23435 2.70834 2.16664 2.97917 2.16664 3.25001V30.8751L13 24.5782L23.8334 30.8751Z" fill="#0C0C0C"/>
</svg>
