<svg width="49" height="35" viewBox="0 0 49 35" fill="none" xmlns="http://www.w3.org/2000/svg">
<path d="M42.3638 6.27874C32.4204 5.17132 16.4414 5.26907 7.34472 6.27872C3.68164 6.68529 3.68164 7.23334 2.985 9.43376C0.963501 18.394 0.458128 23.9469 0.458128 29.1212C0.458128 33.8926 4.26773 34.0109 7.34472 34.3345C12.1458 34.8393 38.2348 34.2954 42.7832 34.043C47.3315 33.7906 48.4686 32.4612 48.4686 29.1212C48.4686 25.0648 47.2515 12.5357 46.3199 9.43376C45.7006 7.37171 45.5873 6.63774 42.3638 6.27874Z" stroke="#E5DFD9" stroke-width="0.9"/>
<path d="M18.334 5.4659V1.92677C18.3828 1.43862 18.8321 0.462305 20.2388 0.462305C21.6454 0.462305 26.5881 0.462305 28.8836 0.462305C29.4697 0.421625 30.6419 0.657567 30.6419 1.92677C30.6419 3.19597 30.6419 4.81502 30.6419 5.4659" stroke="#E5DFD9" stroke-width="0.9"/>
<path d="M20.9714 10.3264H28.2975" stroke="#E5DFD9" stroke-width="0.9"/>
<path d="M11.0078 22.846L11.0078 34.3345" stroke="#E5DFD9" stroke-width="0.9"/>
<path d="M37.675 22.846L37.675 34.3345" stroke="#E5DFD9" stroke-width="0.9"/>
<path d="M32.5281 25.6445C32.5281 30.0304 28.9918 33.5818 24.6344 33.5818C20.2771 33.5818 16.7407 30.0304 16.7407 25.6445C16.7407 21.2585 20.2771 17.7071 24.6344 17.7071C28.9918 17.7071 32.5281 21.2585 32.5281 25.6445Z" stroke="#E5DFD9" stroke-width="0.9"/>
</svg>
