<svg width="12" height="17" viewBox="0 0 12 17" fill="none" xmlns="http://www.w3.org/2000/svg">
<path d="M11.55 1.79999H8.4C8.8875 2.39999 9.225 3.11249 9.45 3.89999H11.55C11.6625 3.89999 11.775 3.97499 11.85 4.04999C11.925 4.12499 12 4.23749 12 4.34999V5.24999C12 5.39999 11.925 5.51249 11.85 5.58749C11.775 5.66249 11.6625 5.69999 11.55 5.69999H9.6C9.525 7.23749 9 8.47499 8.025 9.41249C7.05 10.35 5.8125 10.8 4.3125 10.8H3.825L9.8625 16.0125C10.0125 16.1625 10.0875 16.3125 10.0125 16.5C9.9375 16.725 9.7875 16.8 9.5625 16.8H7.275C7.1625 16.8 7.05 16.7625 6.975 16.6875L0.149995 10.8C0.0374952 10.725 -4.78528e-06 10.6125 -4.78528e-06 10.4625V9.14999C-4.78528e-06 9.03749 0.0374952 8.92499 0.112495 8.84999C0.187495 8.77499 0.299995 8.69999 0.449995 8.69999H3.9375C4.875 8.69999 5.625 8.43749 6.225 7.91249C6.7875 7.38749 7.125 6.63749 7.2 5.69999H0.449995C0.299995 5.69999 0.187495 5.66249 0.112495 5.58749C0.0374952 5.51249 -4.78528e-06 5.39999 -4.78528e-06 5.24999V4.34999C-4.78528e-06 4.23749 0.0374952 4.12499 0.112495 4.04999C0.187495 3.97499 0.299995 3.89999 0.449995 3.89999H6.9375C6.7125 3.33749 6.3375 2.88749 5.8125 2.58749C5.2875 2.28749 4.6875 2.09999 3.975 2.09999H0.449995C0.299995 2.09999 0.187495 2.06249 0.112495 1.98749C0.0374952 1.91249 -4.78528e-06 1.79999 -4.78528e-06 1.64999V0.449991C-4.78528e-06 0.337491 0.0374952 0.224991 0.112495 0.149991C0.187495 0.0749911 0.299995 -8.97239e-06 0.449995 -8.97239e-06H11.55C11.6625 -8.97239e-06 11.775 0.0749911 11.85 0.149991C11.925 0.224991 12 0.337491 12 0.449991V1.34999C12 1.49999 11.925 1.61249 11.85 1.68749C11.775 1.76249 11.6625 1.79999 11.55 1.79999Z" fill="#E5DFD9"/>
</svg>
