<svg width="39" height="43" viewBox="0 0 39 43" fill="none" xmlns="http://www.w3.org/2000/svg">
<path d="M23.978 8.71924H30.5174V29.4275C30.5174 30.9261 29.9725 32.2204 28.8826 33.3103C27.7927 34.4002 26.5665 34.877 25.0679 34.877H5.44956C3.95094 34.877 2.65667 34.4002 1.56677 33.3103C0.476858 32.2204 2.39084e-05 30.9261 2.39084e-05 29.4275V8.71924H6.53947C6.53947 7.1525 6.88006 5.722 7.69749 4.35961C8.44681 2.99723 9.46859 1.97544 10.831 1.15801C12.1934 0.4087 13.6239 -1.53014e-05 15.2587 -1.53014e-05C16.8255 -1.53014e-05 18.256 0.4087 19.6184 1.15801C20.9807 1.97544 22.0025 2.99723 22.82 4.35961C23.5693 5.722 23.978 7.1525 23.978 8.71924ZM15.2587 2.1798C13.4195 2.1798 11.8528 2.86099 10.6266 4.08714C9.33236 5.3814 8.71928 6.94814 8.71928 8.71924H21.7982C21.7982 6.94814 21.117 5.3814 19.8908 4.08714C18.5966 2.86099 17.0298 2.1798 15.2587 2.1798ZM28.3376 29.4275V10.8991H23.978V14.1688C23.978 14.5094 23.8417 14.7819 23.6374 14.9862C23.433 15.1906 23.1606 15.2587 22.8881 15.2587C22.5475 15.2587 22.275 15.1906 22.0706 14.9862C21.8663 14.7819 21.7982 14.5094 21.7982 14.1688V10.8991H8.71928V14.1688C8.71928 14.5094 8.58304 14.7819 8.37869 14.9862C8.17433 15.1906 7.90185 15.2587 7.62938 15.2587C7.28878 15.2587 7.0163 15.1906 6.81195 14.9862C6.60759 14.7819 6.53947 14.5094 6.53947 14.1688V10.8991H2.17984V29.4275C2.17984 30.3812 2.45232 31.1305 3.13351 31.7435C3.74658 32.4247 4.49589 32.6972 5.44956 32.6972H25.0679C25.9534 32.6972 26.7028 32.4247 27.3839 31.7435C27.997 31.1305 28.3376 30.3812 28.3376 29.4275Z" fill="#E5DFD9"/>
<ellipse cx="28.1591" cy="32.7764" rx="9.99386" ry="10.2236" fill="#141414"/>
<path d="M33.2627 31.3621C33.3194 31.3621 33.3478 31.3905 33.4046 31.4473C33.4613 31.5041 33.4897 31.5324 33.4897 31.5892V32.4975C33.4897 32.5542 33.4613 32.611 33.4046 32.6678C33.3478 32.7245 33.3194 32.7245 33.2627 32.7245H28.7214V37.2658C28.7214 37.3226 28.693 37.3793 28.6362 37.4361C28.5795 37.4929 28.5511 37.4929 28.4943 37.4929H27.5861C27.5293 37.4929 27.4725 37.4929 27.4158 37.4361C27.359 37.3793 27.359 37.3226 27.359 37.2658V32.7245H22.8177C22.7609 32.7245 22.7042 32.7245 22.6474 32.6678C22.5906 32.611 22.5906 32.5542 22.5906 32.4975V31.5892C22.5906 31.5324 22.5906 31.5041 22.6474 31.4473C22.7042 31.3905 22.7609 31.3621 22.8177 31.3621H27.359V26.8209C27.359 26.7641 27.359 26.7357 27.4158 26.6789C27.4725 26.6222 27.5293 26.5938 27.5861 26.5938H28.4943C28.5511 26.5938 28.5795 26.6222 28.6362 26.6789C28.693 26.7357 28.7214 26.7641 28.7214 26.8209V31.3621H33.2627Z" fill="#E5DFD9"/>
</svg>
