<svg width="44" height="65" viewBox="0 0 44 65" fill="none" xmlns="http://www.w3.org/2000/svg">
<path d="M11.3191 8.86454V2.91877C11.4015 2.09866 12.1589 0.458452 14.5301 0.458452C16.9012 0.458452 25.2331 0.458452 29.1027 0.458452C30.0907 0.390109 32.0666 0.786494 32.0666 2.91877C32.0666 5.05105 32.0666 7.77107 32.0666 8.86454" stroke="#E5DFD9" stroke-width="0.9"/>
<path d="M17.741 25.4435H25.8918M5.88527 8.62567H37.7475C39.9704 8.62567 40.7114 9.60688 41.2054 11.595C41.635 13.3239 42.5227 45.6602 43.1813 61.5793C43.2637 62.569 43.6753 64.5486 40.4644 64.5486C38.8837 64.5486 15.518 64.5486 3.16833 64.5486C0.451401 64.5486 0.451401 63.7568 0.451401 61.5793C0.451401 59.4017 1.60404 27.3491 2.18036 11.595C2.18036 10.3492 2.67435 8.62567 5.88527 8.62567Z" stroke="#E5DFD9" stroke-width="0.9"/>
<path d="M6.37925 64.5486L7.36723 36.0923C7.36723 34.1041 8.5528 33.3703 10.3312 33.3703C12.1095 33.3703 26.2211 33.3703 33.0546 33.3703C34.1249 33.3703 36.2655 33.9147 36.2655 36.0923C36.2655 38.2698 37.0888 55.9705 37.5005 64.5486" stroke="#E5DFD9" stroke-width="0.9"/>
<path d="M13.5421 33.6178V64.3012" stroke="#E5DFD9" stroke-width="0.9"/>
<path d="M30.5846 33.3703V64.3012" stroke="#E5DFD9" stroke-width="0.9"/>
<path d="M1.93335 19.5133C2.26267 20.3381 2.42734 21.9878 5.88525 21.9878C8.25639 21.9878 27.4561 21.9878 36.7595 21.9878C40.9584 21.9878 41.4524 20.2471 41.6994 19.2573" stroke="#E5DFD9" stroke-width="0.9"/>
</svg>
